<?xml version="1.0" encoding="UTF-8" standalone="no"?>
<svg
   xmlns:dc="http://purl.org/dc/elements/1.1/"
   xmlns:cc="http://creativecommons.org/ns#"
   xmlns:rdf="http://www.w3.org/1999/02/22-rdf-syntax-ns#"
   xmlns:svg="http://www.w3.org/2000/svg"
   xmlns="http://www.w3.org/2000/svg"
   xmlns:sodipodi="http://sodipodi.sourceforge.net/DTD/sodipodi-0.dtd"
   xmlns:inkscape="http://www.inkscape.org/namespaces/inkscape"
   width="48"
   height="48"
   viewBox="0 0 5.76 5.76"
   version="1.1"
   id="svg4"
   sodipodi:docname="alarm.svg"
   inkscape:version="0.92.5 (2060ec1f9f, 2020-04-08)">
  <metadata
     id="metadata10">
    <rdf:RDF>
      <cc:Work
         rdf:about="">
        <dc:format>image/svg+xml</dc:format>
        <dc:type
           rdf:resource="http://purl.org/dc/dcmitype/StillImage" />
        <dc:title></dc:title>
      </cc:Work>
    </rdf:RDF>
  </metadata>
  <defs
     id="defs8" />
  <sodipodi:namedview
     pagecolor="#ffffff"
     bordercolor="#666666"
     borderopacity="1"
     objecttolerance="10"
     gridtolerance="10"
     guidetolerance="10"
     inkscape:pageopacity="0"
     inkscape:pageshadow="2"
     inkscape:window-width="1600"
     inkscape:window-height="851"
     id="namedview6"
     showgrid="false"
     inkscape:snap-page="true"
     inkscape:zoom="9.44"
     inkscape:cx="21.418353"
     inkscape:cy="27.256998"
     inkscape:window-x="0"
     inkscape:window-y="25"
     inkscape:window-maximized="1"
     inkscape:current-layer="svg4" />
  <path
     d="m 2.8800001,5.5335318 q -0.5063992,0 -0.9485195,-0.1922966 Q 1.4893603,5.1489384 1.1617538,4.8213318 0.8341471,4.4937253 0.64185059,4.051605 0.44955386,3.6094847 0.44928379,3.1028155 q 0,-0.5063993 0.1925668,-0.9485196 Q 0.8344173,1.7121757 1.1614837,1.3845691 1.4890902,1.0569626 1.9312105,0.86466586 2.3733308,0.67236925 2.8800001,0.67209918 q 0.5063991,0 0.9487895,0.19256668 0.4423904,0.19256674 0.7697268,0.51990324 0.3273365,0.3273365 0.5199033,0.7697268 0.1925667,0.4423903 0.1922966,0.9485196 0,0.5063991 -0.1922966,0.9487895 Q 4.926123,4.4939954 4.5985164,4.8213318 4.2709099,5.1486684 3.8287896,5.3412352 3.3866693,5.5338019 2.8800001,5.5335318 M 3.6362229,4.2371497 4.0143343,3.8590383 3.1500796,2.9947835 V 1.7524175 H 2.6099205 V 3.2108473 Z M 1.1514907,0.22646787 1.5296021,0.60457928 0.38176389,1.7524175 0.00365244,1.3743061 Z m 3.4570187,0 L 5.7563476,1.3743061 5.3782362,1.7524175 4.230398,0.60457928 Z"
     id="path2"
     inkscape:connector-curvature="0"
     style="fill:#ffffff;stroke-width:0.27007958" />
</svg>
