<?xml version="1.0" encoding="UTF-8" standalone="no"?>
<svg
   xmlns:dc="http://purl.org/dc/elements/1.1/"
   xmlns:cc="http://creativecommons.org/ns#"
   xmlns:rdf="http://www.w3.org/1999/02/22-rdf-syntax-ns#"
   xmlns:svg="http://www.w3.org/2000/svg"
   xmlns="http://www.w3.org/2000/svg"
   xmlns:sodipodi="http://sodipodi.sourceforge.net/DTD/sodipodi-0.dtd"
   xmlns:inkscape="http://www.inkscape.org/namespaces/inkscape"
   width="23.969563"
   height="22.112768"
   viewBox="0 0 2.8763475 2.6535322"
   version="1.1"
   id="svg4"
   sodipodi:docname="alarm.svg"
   inkscape:version="0.92.5 (2060ec1f9f, 2020-04-08)">
  <metadata
     id="metadata10">
    <rdf:RDF>
      <cc:Work
         rdf:about="">
        <dc:format>image/svg+xml</dc:format>
        <dc:type
           rdf:resource="http://purl.org/dc/dcmitype/StillImage" />
        <dc:title></dc:title>
      </cc:Work>
    </rdf:RDF>
  </metadata>
  <defs
     id="defs8" />
  <sodipodi:namedview
     pagecolor="#ffffff"
     bordercolor="#666666"
     borderopacity="1"
     objecttolerance="10"
     gridtolerance="10"
     guidetolerance="10"
     inkscape:pageopacity="0"
     inkscape:pageshadow="2"
     inkscape:window-width="1600"
     inkscape:window-height="851"
     id="namedview6"
     showgrid="false"
     inkscape:snap-page="true"
     inkscape:zoom="9.44"
     inkscape:cx="-9.1350009"
     inkscape:cy="13.889653"
     inkscape:window-x="0"
     inkscape:window-y="25"
     inkscape:window-maximized="1"
     inkscape:current-layer="svg4"
     fit-margin-top="0"
     fit-margin-left="0"
     fit-margin-right="0"
     fit-margin-bottom="0" />
  <path
     d="m 1.4381739,2.653532 q -0.2531996,0 -0.4742598,-0.096148 Q 0.742854,2.4612353 0.5790507,2.297432 0.4152474,2.1336288 0.3190991,1.9125686 0.2229507,1.6915085 0.2228157,1.4381739 q 0,-0.2531997 0.096283,-0.4742598 Q 0.4153817,0.742854 0.5789153,0.5790507 0.7427185,0.4152474 0.9637787,0.319099 1.1848388,0.222951 1.4381735,0.222816 q 0.2531995,0 0.4743947,0.096283 0.2211952,0.096283 0.3848634,0.2599517 0.1636683,0.1636682 0.2599517,0.3848634 0.096283,0.2211951 0.096148,0.4742598 0,0.2531995 -0.096148,0.4743947 Q 2.4612353,2.1337638 2.297432,2.297432 2.1336288,2.4611003 1.9125686,2.5573837 1.6915085,2.6536671 1.4381739,2.653532 M 1.8162853,2.005341 2.005341,1.8162853 1.5732136,1.3841579 V 0.7629749 H 1.3031341 V 1.4921898 Z M 0.5739192,0 0.7629749,0.1890558 0.1890558,0.7629749 0,0.5739192 Z M 2.3024285,0 2.8763476,0.5739192 2.6872919,0.7629749 2.1133728,0.1890558 Z"
     id="path2"
     inkscape:connector-curvature="0"
     style="fill:#ffffff;stroke-width:0.13503979" />
</svg>
