<?xml version="1.0" encoding="UTF-8" standalone="no"?>
<svg
   xmlns:dc="http://purl.org/dc/elements/1.1/"
   xmlns:cc="http://creativecommons.org/ns#"
   xmlns:rdf="http://www.w3.org/1999/02/22-rdf-syntax-ns#"
   xmlns:svg="http://www.w3.org/2000/svg"
   xmlns="http://www.w3.org/2000/svg"
   xmlns:sodipodi="http://sodipodi.sourceforge.net/DTD/sodipodi-0.dtd"
   xmlns:inkscape="http://www.inkscape.org/namespaces/inkscape"
   id="Capa_1"
   enable-background="new 0 0 512 512"
   height="48"
   viewBox="0 0 48 48"
   width="48"
   version="1.1"
   sodipodi:docname="cloud.svg"
   inkscape:version="0.92.4 (5da689c313, 2019-01-14)">
  <metadata
     id="metadata12">
    <rdf:RDF>
      <cc:Work
         rdf:about="">
        <dc:format>image/svg+xml</dc:format>
        <dc:type
           rdf:resource="http://purl.org/dc/dcmitype/StillImage" />
        <dc:title></dc:title>
      </cc:Work>
    </rdf:RDF>
  </metadata>
  <defs
     id="defs10" />
  <sodipodi:namedview
     pagecolor="#ffffff"
     bordercolor="#666666"
     borderopacity="1"
     objecttolerance="10"
     gridtolerance="10"
     guidetolerance="10"
     inkscape:pageopacity="0"
     inkscape:pageshadow="2"
     inkscape:window-width="1600"
     inkscape:window-height="830"
     id="namedview8"
     showgrid="false"
     inkscape:zoom="0.92187499"
     inkscape:cx="61.244177"
     inkscape:cy="100.17759"
     inkscape:window-x="1920"
     inkscape:window-y="0"
     inkscape:window-maximized="1"
     inkscape:current-layer="Capa_1" />
  <g
     id="g1389"
     transform="scale(0.09375)">
    <g
       style="fill:#ffffff;fill-opacity:1;stroke:none"
       id="Cloud_1_">
      <g
         style="fill:#ffffff;fill-opacity:1;stroke:none"
         id="g4">
        <path
           sodipodi:nodetypes="ssccscsscsccsccs"
           inkscape:connector-curvature="0"
           id="path2"
           d="m 196,106 c -66.168,0 -120,53.832 -120,120 0,0.411 0.0037,0.82056 0.01172,1.22656 -18.402,3.043 -35.440688,11.66911 -49.054688,25.03711 C 9.5730312,269.33267 0,291.969 0,316 0,340.031 9.5730312,362.66733 26.957031,379.73633 44.205031,396.67333 66.95,406 91,406 h 330 c 24.05,0 46.79397,-9.32667 64.04297,-26.26367 C 502.42597,362.66733 512,340.032 512,316 c 0,-24.032 -9.57403,-46.66733 -26.95703,-63.73633 -13.878,-13.627 -31.3101,-22.32703 -50.12109,-25.20703 C 428.20287,184.02664 390.886,151 346,151 c -16.901,0 -33.13975,4.67325 -47.21875,13.40625 -8.722,-14.6 -20.45589,-27.20497 -34.58789,-37.04297 C 244.11836,113.38728 220.538,106 196,106 Z"
           style="fill:#ffffff;fill-opacity:1;stroke:none" />
      </g>
    </g>
  </g>
</svg>
