<?xml version="1.0" encoding="UTF-8" standalone="no"?>
<!-- Generator: Adobe Illustrator 18.0.0, SVG Export Plug-In . SVG Version: 6.00 Build 0)  -->

<svg
   xmlns:dc="http://purl.org/dc/elements/1.1/"
   xmlns:cc="http://creativecommons.org/ns#"
   xmlns:rdf="http://www.w3.org/1999/02/22-rdf-syntax-ns#"
   xmlns:svg="http://www.w3.org/2000/svg"
   xmlns="http://www.w3.org/2000/svg"
   xmlns:sodipodi="http://sodipodi.sourceforge.net/DTD/sodipodi-0.dtd"
   xmlns:inkscape="http://www.inkscape.org/namespaces/inkscape"
   version="1.1"
   id="Capa_1"
   x="0px"
   y="0px"
   viewBox="0 0 48.000001 48.000001"
   xml:space="preserve"
   sodipodi:docname="rain.svg"
   inkscape:version="0.92.4 (5da689c313, 2019-01-14)"
   width="48"
   height="48"><metadata
   id="metadata45"><rdf:RDF><cc:Work
       rdf:about=""><dc:format>image/svg+xml</dc:format><dc:type
         rdf:resource="http://purl.org/dc/dcmitype/StillImage" /><dc:title></dc:title></cc:Work></rdf:RDF></metadata><defs
   id="defs43">
	
	
	
</defs><sodipodi:namedview
   pagecolor="#ffffff"
   bordercolor="#666666"
   borderopacity="1"
   objecttolerance="10"
   gridtolerance="10"
   guidetolerance="10"
   inkscape:pageopacity="0"
   inkscape:pageshadow="2"
   inkscape:window-width="1600"
   inkscape:window-height="830"
   id="namedview41"
   showgrid="false"
   inkscape:zoom="1.8586054"
   inkscape:cx="-23.838552"
   inkscape:cy="24.828988"
   inkscape:window-x="1920"
   inkscape:window-y="0"
   inkscape:window-maximized="1"
   inkscape:current-layer="Capa_1" />
<g
   id="g867"
   style="fill:#ffffff;fill-opacity:1"
   transform="matrix(0.13365093,0,0,0.13365093,-2.9569177e-5,-2.1945645e-7)"><path
     id="path2"
     d="m 268.21094,0 c -6.369,0 -12.04335,4.0202969 -14.15235,10.029297 L 206.52344,145.39062 c -7.117,20.267 -4.0753,41.9408 8.3457,59.4668 12.42,17.524 31.8618,27.57422 53.3418,27.57422 21.48,0 40.92375,-10.05117 53.34375,-27.57617 12.419,-17.524 15.45879,-39.19884 8.34179,-59.46485 L 282.36328,10.029297 C 280.25328,4.0202969 274.57994,0 268.21094,0 Z"
     style="fill:#ffffff;fill-opacity:1"
     inkscape:connector-curvature="0" /><path
     id="path4"
     d="m 154.43945,160.83203 c -6.368,0 -12.04334,4.02225 -14.15234,10.03125 L 100.76758,283.4082 c -6.102002,17.375 -3.388236,36.71819 7.25976,51.74219 10.648,15.024 27.99907,23.99414 46.41407,23.99414 18.415,0 35.76606,-8.97014 46.41406,-23.99414 10.647,-15.024 13.36076,-34.36719 7.25976,-51.74219 L 168.5918,170.86328 c -2.109,-6.009 -7.78435,-10.03125 -14.15235,-10.03125 z"
     style="fill:#ffffff;fill-opacity:1"
     inkscape:connector-curvature="0" /><path
     id="path6"
     d="m 71.310547,22.658203 c -6.368,0 -12.043344,4.020297 -14.152344,10.029297 l -29.101562,82.87109 c -4.917,14.002 -2.729438,29.59027 5.851562,41.69727 8.58,12.107 22.563344,19.33594 37.402344,19.33594 14.839,0 28.822343,-7.22894 37.402343,-19.33594 8.581,-12.107 10.76856,-27.69527 5.85156,-41.69727 L 85.462891,32.6875 c -2.109,-6.009 -7.784344,-10.029297 -14.152344,-10.029297 z"
     style="fill:#ffffff;fill-opacity:1"
     inkscape:connector-curvature="0" /></g>
<g
   id="g10"
   transform="matrix(0.13365093,0,0,0.13365093,99.616525,1.5343205)">
</g>
<g
   id="g12"
   transform="matrix(0.13365093,0,0,0.13365093,99.616525,1.5343205)">
</g>
<g
   id="g14"
   transform="matrix(0.13365093,0,0,0.13365093,99.616525,1.5343205)">
</g>
<g
   id="g16"
   transform="matrix(0.13365093,0,0,0.13365093,99.616525,1.5343205)">
</g>
<g
   id="g18"
   transform="matrix(0.13365093,0,0,0.13365093,99.616525,1.5343205)">
</g>
<g
   id="g20"
   transform="matrix(0.13365093,0,0,0.13365093,99.616525,1.5343205)">
</g>
<g
   id="g22"
   transform="matrix(0.13365093,0,0,0.13365093,99.616525,1.5343205)">
</g>
<g
   id="g24"
   transform="matrix(0.13365093,0,0,0.13365093,99.616525,1.5343205)">
</g>
<g
   id="g26"
   transform="matrix(0.13365093,0,0,0.13365093,99.616525,1.5343205)">
</g>
<g
   id="g28"
   transform="matrix(0.13365093,0,0,0.13365093,99.616525,1.5343205)">
</g>
<g
   id="g30"
   transform="matrix(0.13365093,0,0,0.13365093,99.616525,1.5343205)">
</g>
<g
   id="g32"
   transform="matrix(0.13365093,0,0,0.13365093,99.616525,1.5343205)">
</g>
<g
   id="g34"
   transform="matrix(0.13365093,0,0,0.13365093,99.616525,1.5343205)">
</g>
<g
   id="g36"
   transform="matrix(0.13365093,0,0,0.13365093,99.616525,1.5343205)">
</g>
<g
   id="g38"
   transform="matrix(0.13365093,0,0,0.13365093,99.616525,1.5343205)">
</g>
</svg>