<?xml version="1.0" encoding="UTF-8" standalone="no"?>
<!-- Generator: Adobe Illustrator 19.0.0, SVG Export Plug-In . SVG Version: 6.00 Build 0)  -->

<svg
   xmlns:dc="http://purl.org/dc/elements/1.1/"
   xmlns:cc="http://creativecommons.org/ns#"
   xmlns:rdf="http://www.w3.org/1999/02/22-rdf-syntax-ns#"
   xmlns:svg="http://www.w3.org/2000/svg"
   xmlns="http://www.w3.org/2000/svg"
   xmlns:sodipodi="http://sodipodi.sourceforge.net/DTD/sodipodi-0.dtd"
   xmlns:inkscape="http://www.inkscape.org/namespaces/inkscape"
   version="1.1"
   id="Capa_1"
   x="0px"
   y="0px"
   viewBox="0 0 48 48"
   xml:space="preserve"
   sodipodi:docname="thermometer.svg"
   inkscape:version="0.92.4 (5da689c313, 2019-01-14)"
   width="48"
   height="48"><metadata
   id="metadata55"><rdf:RDF><cc:Work
       rdf:about=""><dc:format>image/svg+xml</dc:format><dc:type
         rdf:resource="http://purl.org/dc/dcmitype/StillImage" /><dc:title></dc:title></cc:Work></rdf:RDF></metadata><defs
   id="defs53" /><sodipodi:namedview
   pagecolor="#ffffff"
   bordercolor="#666666"
   borderopacity="1"
   objecttolerance="10"
   gridtolerance="10"
   guidetolerance="10"
   inkscape:pageopacity="0"
   inkscape:pageshadow="2"
   inkscape:window-width="1600"
   inkscape:window-height="830"
   id="namedview51"
   showgrid="false"
   inkscape:zoom="3.6874999"
   inkscape:cx="36.939133"
   inkscape:cy="41.063044"
   inkscape:window-x="1920"
   inkscape:window-y="0"
   inkscape:window-maximized="1"
   inkscape:current-layer="Capa_1" />

















<g
   id="g859"
   transform="matrix(0.09375,0,0,0.09375,0,43.5)"><g
     transform="translate(0,-464)"
     style="fill:#fffffc;fill-opacity:1"
     id="g6">
	<g
   style="fill:#fffffc;fill-opacity:1"
   id="g4">
		<path
   inkscape:connector-curvature="0"
   style="fill:#fffffc;fill-opacity:1"
   id="path2"
   d="M 341.333,288.593 V 85.333 C 341.333,38.205 303.128,0 256,0 208.872,0 170.667,38.205 170.667,85.333 V 288.592 C 144.48,312.03 128,346.091 128,384 c 0,70.693 57.308,128 128,128 70.692,0 128,-57.307 128,-128 0,-37.909 -16.48,-71.97 -42.667,-95.407 z M 256,469.333 c -47.128,0 -85.333,-38.205 -85.333,-85.333 0,-24.637 10.441,-47.492 28.455,-63.615 l 14.212,-12.72 V 85.333 c 0,-23.564 19.103,-42.667 42.667,-42.667 23.564,0 42.667,19.102 42.667,42.667 v 222.332 l 14.212,12.72 c 18.014,16.123 28.455,38.977 28.455,63.615 -0.002,47.128 -38.207,85.333 -85.335,85.333 z" />
	</g>
</g><g
     transform="translate(0,-464)"
     style="fill:#fffffc;fill-opacity:1"
     id="g12">
	<g
   style="fill:#fffffc;fill-opacity:1"
   id="g10">
		<rect
   style="fill:#fffffc;fill-opacity:1"
   id="rect8"
   height="256"
   width="42.667"
   y="170.66701"
   x="234.66701" />
	</g>
</g><g
     transform="translate(0,-464)"
     style="fill:#fffffc;fill-opacity:1"
     id="g18">
	<g
   style="fill:#fffffc;fill-opacity:1"
   id="g16">
		<circle
   style="fill:#fffffc;fill-opacity:1"
   id="circle14"
   r="64"
   cy="384"
   cx="256" />
	</g>
</g><g
     transform="translate(0,-464)"
     style="fill:#fffffc;fill-opacity:1"
     id="g20">
</g><g
     transform="translate(0,-464)"
     style="fill:#fffffc;fill-opacity:1"
     id="g22">
</g><g
     transform="translate(0,-464)"
     style="fill:#fffffc;fill-opacity:1"
     id="g24">
</g><g
     transform="translate(0,-464)"
     style="fill:#fffffc;fill-opacity:1"
     id="g26">
</g><g
     transform="translate(0,-464)"
     style="fill:#fffffc;fill-opacity:1"
     id="g28">
</g><g
     transform="translate(0,-464)"
     style="fill:#fffffc;fill-opacity:1"
     id="g30">
</g><g
     transform="translate(0,-464)"
     style="fill:#fffffc;fill-opacity:1"
     id="g32">
</g><g
     transform="translate(0,-464)"
     style="fill:#fffffc;fill-opacity:1"
     id="g34">
</g><g
     transform="translate(0,-464)"
     style="fill:#fffffc;fill-opacity:1"
     id="g36">
</g><g
     transform="translate(0,-464)"
     style="fill:#fffffc;fill-opacity:1"
     id="g38">
</g><g
     transform="translate(0,-464)"
     style="fill:#fffffc;fill-opacity:1"
     id="g40">
</g><g
     transform="translate(0,-464)"
     style="fill:#fffffc;fill-opacity:1"
     id="g42">
</g><g
     transform="translate(0,-464)"
     style="fill:#fffffc;fill-opacity:1"
     id="g44">
</g><g
     transform="translate(0,-464)"
     style="fill:#fffffc;fill-opacity:1"
     id="g46">
</g><g
     transform="translate(0,-464)"
     style="fill:#fffffc;fill-opacity:1"
     id="g48">
</g></g>
</svg>